<?xml version="1.0" standalone="no"?>
<!DOCTYPE svg PUBLIC "-//W3C//DTD SVG 20010904//EN"
 "http://www.w3.org/TR/2001/REC-SVG-20010904/DTD/svg10.dtd">
<svg version="1.0" xmlns="http://www.w3.org/2000/svg"
 width="1894.000000pt" height="1780.000000pt" viewBox="0 0 1894.000000 1780.000000"
 preserveAspectRatio="xMidYMid meet">
<metadata>
Created by potrace 1.15, written by Peter Selinger 2001-2017
</metadata>
<g transform="translate(0.000000,1780.000000) scale(0.100000,-0.100000)"
fill="#000000" stroke="none">
<path d="M11249 16330 c-29 -23 -63 -43 -74 -45 -11 -3 -52 -12 -91 -20 -234
-47 -386 -173 -446 -368 -28 -92 -23 -239 11 -308 59 -123 175 -182 425 -214
95 -13 121 -77 55 -137 -46 -44 -89 -38 -219 27 -116 58 -144 64 -189 40 -90
-46 -56 -209 70 -337 76 -77 102 -81 206 -35 43 19 125 47 183 62 204 53 274
88 377 191 97 95 144 192 151 304 5 91 -14 167 -56 226 -51 70 -203 134 -359
149 -130 13 -193 42 -193 88 0 45 52 97 97 97 9 0 60 -20 114 -45 107 -49 146
-54 198 -27 45 23 71 59 78 110 14 107 -136 282 -242 282 -33 0 -53 -8 -96
-40z"/>
<path d="M9924 15791 c-129 -64 -278 -158 -344 -217 -100 -91 -94 -185 14
-205 27 -5 55 -14 62 -20 31 -26 114 -396 114 -510 0 -75 -21 -117 -79 -156
-71 -48 -131 -15 -163 88 -9 30 -47 205 -83 389 -37 184 -71 343 -76 353 -6 9
-20 17 -33 17 -51 0 -331 -154 -480 -264 -135 -100 -158 -224 -45 -239 53 -7
89 -33 111 -80 10 -20 36 -126 58 -236 43 -212 62 -275 103 -356 47 -94 113
-135 215 -135 155 0 313 89 436 245 37 45 73 86 81 89 9 3 21 -4 30 -19 8 -14
22 -36 30 -50 22 -35 47 -32 155 21 242 117 430 283 430 378 0 51 -20 76 -77
92 -29 8 -57 23 -62 32 -8 16 -130 615 -146 722 -13 84 -44 120 -103 120 -16
0 -83 -26 -148 -59z"/>
<path d="M15601 15475 c-55 -58 -82 -72 -177 -90 -111 -21 -195 -64 -264 -134
-58 -59 -90 -124 -90 -180 1 -46 37 -110 75 -132 36 -22 43 -33 25 -44 -18
-11 -51 -85 -52 -118 -1 -43 16 -73 53 -93 l31 -16 -20 -21 c-45 -51 -31 -131
30 -164 107 -58 375 27 511 161 71 70 100 140 95 222 -3 54 -8 68 -33 94 -55
58 -120 51 -293 -31 -110 -51 -155 -60 -166 -33 -9 23 7 39 56 53 107 32 225
118 264 192 24 47 33 103 23 146 -6 28 -3 45 12 74 21 43 26 128 7 147 -21 21
-43 13 -87 -33z m-196 -225 c23 -26 44 -107 36 -139 -9 -32 -52 -64 -74 -55
-26 10 -60 83 -61 132 -1 35 4 48 23 63 30 24 53 24 76 -1z m164 -529 c22 -40
-64 -105 -153 -117 -36 -5 -47 -3 -65 15 -11 11 -21 25 -21 30 0 5 33 19 73
31 39 12 88 30 107 41 44 23 47 23 59 0z"/>
<path d="M7945 15385 c-85 -23 -143 -49 -451 -203 -165 -82 -363 -177 -440
-211 -197 -86 -254 -139 -254 -234 0 -65 16 -79 96 -88 105 -11 116 -30 168
-294 82 -418 126 -793 100 -860 -4 -11 -24 -44 -43 -74 -70 -105 -39 -201 63
-201 35 0 84 21 267 114 123 63 325 160 449 216 124 56 258 119 298 141 216
116 361 293 417 510 26 100 18 255 -19 335 -15 34 -42 76 -59 92 -44 43 -132
81 -205 88 -87 9 -92 19 -49 101 50 98 67 164 67 264 0 151 -50 247 -154 295
-59 28 -168 32 -251 9z m-229 -411 c61 -29 104 -132 104 -249 -1 -98 -49 -175
-134 -210 -37 -16 -55 -10 -68 24 -15 39 -68 310 -68 346 0 42 25 72 75 90 51
18 51 18 91 -1z m228 -709 c69 -69 98 -243 55 -332 -25 -51 -77 -97 -136 -119
-39 -15 -45 -15 -67 -1 -16 11 -31 38 -44 79 -25 77 -62 247 -62 286 0 63 83
121 172 122 41 0 52 -5 82 -35z"/>
<path d="M14641 15107 c-51 -20 -110 -74 -134 -125 -25 -53 -38 -56 -51 -13
-15 52 -46 51 -125 -2 -36 -26 -95 -72 -129 -103 -57 -52 -63 -60 -60 -92 3
-30 8 -37 36 -47 43 -14 46 -21 65 -130 28 -164 28 -168 7 -200 -25 -38 -25
-67 -2 -88 33 -30 100 -18 220 40 75 37 132 90 132 123 0 11 -14 35 -31 55
-25 28 -36 55 -50 123 -27 129 -25 176 8 202 59 47 101 9 127 -116 18 -83 20
-131 11 -199 -12 -88 28 -95 183 -35 114 44 166 85 170 133 3 33 -1 39 -31 57
-33 20 -36 27 -62 133 -65 262 -82 289 -188 294 -34 1 -77 -3 -96 -10z"/>
<path d="M13793 14989 c-43 -13 -152 -96 -180 -138 -28 -42 -29 -85 -3 -111
27 -27 64 -25 135 9 114 54 184 138 170 202 -10 46 -50 59 -122 38z"/>
<path d="M13835 14761 c-97 -64 -194 -149 -201 -176 -9 -37 3 -75 25 -75 34 0
58 -33 75 -101 30 -125 31 -172 6 -221 -24 -50 -24 -96 2 -112 41 -25 290 73
342 135 29 35 34 82 10 101 -59 48 -59 48 -99 248 -21 107 -42 205 -46 218
-12 33 -45 28 -114 -17z"/>
<path d="M13375 14568 c-43 -15 -83 -55 -111 -110 -13 -27 -27 -48 -30 -48 -3
0 -12 16 -20 36 -13 32 -18 35 -42 29 -41 -10 -148 -83 -214 -145 -52 -50 -58
-60 -58 -97 0 -42 10 -53 50 -53 27 0 36 -23 54 -126 21 -116 20 -150 -3 -183
-39 -55 -36 -112 8 -126 65 -20 371 117 399 180 15 33 15 78 0 93 -7 7 -31 12
-54 12 -42 0 -43 1 -58 48 -8 26 -21 77 -27 115 -15 84 -7 98 47 78 49 -18 97
-7 141 32 46 40 63 82 63 152 0 46 -4 60 -27 85 -32 34 -74 44 -118 28z"/>
<path d="M12525 14176 c-99 -31 -175 -89 -234 -177 -106 -159 -107 -341 -3
-449 81 -83 185 -91 318 -25 155 76 271 250 206 308 -29 26 -43 21 -100 -38
-66 -67 -124 -92 -176 -75 -37 12 -64 46 -49 60 4 5 69 36 143 70 164 75 184
93 178 166 -11 130 -143 204 -283 160z"/>
<path d="M11798 13836 c-61 -22 -128 -66 -175 -115 -53 -55 -109 -165 -123
-241 -29 -149 46 -299 164 -331 101 -28 236 21 341 122 71 68 105 127 105 180
0 78 -44 78 -125 0 -63 -60 -114 -84 -157 -74 -25 6 -68 41 -68 55 0 5 69 42
154 82 92 44 159 82 165 94 14 26 14 92 0 129 -35 92 -168 139 -281 99z"/>
<path d="M5495 13700 c-162 -34 -294 -139 -362 -288 -40 -88 -58 -112 -84
-112 -17 0 -39 50 -39 88 0 22 -39 52 -69 52 -15 0 -46 -12 -67 -26 -119 -80
-383 -315 -436 -388 -21 -30 -28 -50 -28 -86 0 -57 16 -74 84 -91 36 -9 53
-20 66 -42 28 -45 90 -395 90 -505 0 -43 -7 -67 -36 -117 -41 -75 -40 -121 5
-156 57 -46 218 -4 428 112 164 92 252 179 253 252 0 39 -12 58 -70 114 l-51
48 -39 193 c-48 235 -52 320 -16 373 23 34 97 79 130 79 27 0 73 -49 96 -101
33 -77 69 -259 77 -381 6 -103 5 -110 -22 -169 -20 -46 -26 -71 -21 -98 16
-103 118 -95 370 31 246 123 346 209 346 299 0 55 -7 66 -66 100 -30 17 -58
38 -63 48 -5 9 -37 129 -70 266 -34 138 -72 282 -87 321 -30 85 -78 146 -134
168 -50 20 -133 27 -185 16z"/>
<path d="M11065 13486 c-54 -25 -110 -81 -131 -131 -7 -17 -20 -37 -28 -45
-14 -11 -17 -8 -22 19 -14 68 -43 65 -147 -19 -168 -135 -201 -197 -125 -232
43 -20 48 -35 74 -195 16 -102 16 -103 -6 -138 -25 -41 -21 -78 10 -95 43 -23
211 44 290 116 49 45 55 93 16 129 -27 25 -38 59 -60 184 -17 98 -9 134 36
157 59 31 87 -7 114 -158 13 -71 15 -103 7 -142 -13 -62 -7 -85 24 -92 33 -9
89 9 181 57 104 55 142 92 142 140 0 28 -5 39 -19 44 -37 11 -52 44 -87 188
-37 151 -61 202 -104 224 -39 20 -110 15 -165 -11z"/>
<path d="M10203 13310 c-36 -18 -83 -54 -117 -89 -48 -52 -56 -65 -56 -99 0
-73 47 -90 135 -48 138 65 226 196 167 249 -27 24 -61 21 -129 -13z"/>
<path d="M10272 13100 c-33 -22 -92 -70 -131 -106 -69 -64 -72 -69 -69 -107 3
-36 7 -42 38 -52 32 -11 37 -17 53 -76 9 -35 22 -93 27 -128 10 -60 9 -67 -16
-117 -31 -62 -28 -100 10 -110 58 -14 270 79 326 142 42 48 42 98 0 122 -39
22 -43 34 -85 252 -20 102 -39 193 -41 203 -8 28 -47 20 -112 -23z"/>
<path d="M3815 12902 c-130 -69 -171 -94 -287 -179 -99 -72 -128 -112 -128
-172 0 -52 23 -76 83 -85 24 -4 52 -15 60 -24 31 -36 99 -323 113 -479 5 -59
2 -74 -18 -113 -27 -53 -78 -90 -123 -90 -36 0 -77 36 -95 85 -6 17 -45 194
-85 394 -78 389 -81 397 -134 384 -39 -9 -193 -88 -306 -156 -212 -127 -265
-181 -265 -266 0 -45 26 -71 71 -71 43 0 92 -40 111 -93 10 -26 34 -127 53
-224 64 -321 118 -436 224 -480 50 -21 158 -18 232 7 120 40 197 98 295 218
93 117 97 118 130 47 14 -29 26 -41 44 -43 60 -7 315 147 442 266 73 70 108
129 108 185 0 47 -24 72 -78 81 -28 4 -46 14 -56 29 -7 12 -44 180 -81 372
-83 427 -81 421 -106 446 -34 34 -83 24 -204 -39z"/>
<path d="M9825 12894 c-57 -62 -65 -67 -140 -88 -109 -31 -178 -68 -245 -132
-127 -121 -153 -255 -66 -332 19 -16 40 -32 47 -34 8 -3 4 -17 -15 -45 -29
-44 -43 -105 -32 -146 3 -13 21 -32 40 -42 l35 -19 -20 -24 c-13 -17 -19 -40
-19 -74 0 -61 30 -94 95 -103 73 -11 234 43 341 115 l32 21 7 -28 c11 -46 455
-1717 461 -1735 3 -10 1 -18 -5 -18 -6 0 -74 -27 -152 -61 -78 -33 -145 -56
-150 -52 -4 4 -221 376 -483 827 -261 450 -478 821 -482 825 -9 9 -15 23 400
-913 207 -467 375 -850 374 -851 -2 -1 -43 -26 -93 -55 -49 -29 -112 -68 -139
-86 l-48 -32 -27 31 c-15 18 -281 345 -591 727 -309 382 -572 704 -583 715
l-20 20 18 -30 c11 -16 246 -381 523 -810 l504 -780 -43 -35 c-24 -19 -81 -68
-127 -109 l-84 -73 -26 24 c-112 103 -1392 1247 -1403 1253 -8 5 45 -56 116
-135 618 -688 1151 -1284 1153 -1291 2 -5 -25 -42 -60 -82 -51 -58 -133 -157
-144 -175 -2 -2 -353 223 -781 500 -428 277 -791 512 -808 523 l-30 18 20 -20
c11 -11 337 -278 725 -593 388 -315 713 -580 723 -589 17 -17 14 -23 -67 -157
-48 -80 -90 -138 -98 -137 -7 2 -400 174 -872 383 -473 208 -861 378 -863 376
-2 -1 368 -218 822 -480 454 -263 825 -479 825 -480 0 0 -25 -62 -55 -136 -30
-74 -55 -141 -55 -148 0 -7 -6 -15 -14 -18 -8 -3 -423 103 -921 236 -499 132
-909 239 -911 237 -2 -2 391 -155 874 -341 482 -186 880 -342 885 -345 4 -4
-6 -61 -22 -127 -16 -65 -33 -136 -36 -156 -6 -33 -11 -38 -34 -38 -14 0 -442
43 -951 95 -508 52 -929 95 -935 94 -5 0 406 -90 915 -199 1066 -230 972 -209
966 -218 -2 -4 -10 -78 -17 -164 l-12 -158 -31 -4 c-17 -3 -427 -26 -911 -51
-484 -25 -898 -49 -920 -53 -24 -4 329 -27 908 -59 522 -28 950 -53 953 -55 2
-2 6 -30 10 -62 7 -57 5 -62 -51 -177 -33 -66 -66 -120 -75 -122 -9 -2 -402
-87 -873 -188 -471 -100 -855 -184 -853 -186 1 -2 332 31 734 72 402 41 740
75 751 75 18 0 17 -5 -11 -92 -16 -51 -45 -120 -64 -154 -40 -71 -88 -200 -98
-259 l-7 -40 -558 -215 c-308 -118 -558 -216 -557 -218 2 -1 249 64 550 144
301 80 551 143 554 140 7 -7 4 -253 -4 -346 -3 -36 -15 -87 -26 -115 -11 -27
-26 -83 -32 -124 l-11 -74 -347 -201 c-191 -111 -350 -205 -353 -208 -4 -4
156 65 354 153 198 87 364 159 369 159 4 0 15 -24 24 -53 16 -48 30 -329 32
-642 l1 -70 -50 2 c-27 1 -95 3 -151 5 -89 3 -106 0 -152 -21 -48 -22 -52 -27
-58 -67 -3 -24 -5 -78 -3 -119 l4 -76 -145 -53 c-848 -307 -1323 -652 -1425
-1036 -19 -72 -19 -207 1 -283 33 -127 134 -287 256 -402 37 -36 68 -72 68
-79 0 -8 8 -14 18 -14 9 1 53 -24 96 -56 457 -329 1234 -616 2196 -810 747
-151 1617 -254 2415 -286 361 -15 348 -13 368 -55 l17 -35 66 36 65 37 217 -5
c253 -6 930 6 1229 22 2227 116 4046 591 4733 1238 192 179 283 359 283 552 0
262 -175 507 -533 745 -138 92 -281 171 -433 241 -347 159 -809 313 -1275 425
-216 52 -202 47 -202 73 0 20 9 26 63 40 75 21 84 27 122 88 17 27 34 48 39
48 5 0 52 -28 105 -62 53 -34 192 -124 309 -200 116 -75 212 -136 212 -134 0
2 -137 115 -305 252 -221 180 -304 252 -300 264 4 8 9 160 12 338 6 289 8 323
22 319 9 -3 225 -98 481 -212 498 -221 519 -230 507 -219 -4 5 -234 139 -510
299 l-502 292 -8 99 c-4 54 -14 155 -21 224 -12 109 -12 129 1 154 8 15 13 37
10 47 -3 11 0 19 6 19 6 0 307 -79 670 -175 363 -97 661 -174 663 -172 2 2
-301 122 -675 267 l-679 263 -17 61 c-30 108 -77 249 -107 324 -17 40 -29 75
-27 76 2 2 391 -36 864 -85 473 -49 863 -87 868 -86 4 1 -401 89 -900 196
-890 190 -1019 222 -1018 256 1 6 5 71 9 146 l8 136 67 6 c36 3 470 27 964 54
493 26 897 50 897 53 0 3 -402 27 -892 53 -491 27 -925 51 -964 54 l-71 6 -7
96 c-4 53 -9 125 -12 161 l-6 65 957 205 c526 113 951 206 943 207 -7 2 -445
-42 -973 -96 -528 -54 -961 -98 -962 -97 -1 1 -13 51 -27 111 -15 61 -32 129
-38 153 -9 32 -10 45 -1 50 6 4 412 162 902 351 490 190 889 347 887 349 -2 2
-420 -107 -928 -242 -508 -135 -928 -246 -933 -246 -6 0 -31 51 -56 113 -25
61 -53 128 -62 147 l-15 35 844 489 c464 270 842 491 841 493 -2 1 -394 -171
-872 -383 -479 -212 -880 -390 -892 -394 -20 -8 -26 -3 -55 48 -17 31 -55 93
-84 138 l-52 81 754 613 c415 337 754 615 754 617 0 3 -12 -3 -27 -13 -270
-177 -1605 -1034 -1611 -1034 -4 0 -24 21 -44 48 -19 26 -66 80 -102 120 l-67
73 124 137 c193 215 1158 1295 1176 1317 9 11 -24 -17 -74 -61 -787 -705
-1354 -1212 -1367 -1222 -14 -11 -28 -2 -104 65 -49 43 -104 90 -123 105 -33
25 -34 27 -19 50 23 34 966 1494 1005 1556 18 28 32 52 29 52 -2 0 -277 -335
-610 -744 -333 -410 -609 -747 -614 -750 -4 -2 -48 21 -99 52 -50 32 -111 69
-137 84 l-45 27 14 33 c7 18 185 420 394 892 210 473 380 860 379 861 -2 2
-223 -377 -493 -841 -269 -465 -494 -842 -500 -840 -5 3 -74 31 -151 63 l-141
59 248 934 c137 514 247 935 246 937 -2 1 -160 -404 -352 -900 -192 -496 -349
-903 -349 -903 -1 -2 -273 63 -303 72 -7 2 -13 16 -13 31 0 16 43 445 95 953
52 509 95 932 94 940 0 8 -92 -412 -205 -934 -112 -522 -205 -950 -207 -951
-2 -3 -224 14 -284 21 -41 5 -43 7 -43 37 0 18 -23 442 -50 942 -27 501 -50
928 -50 949 0 22 -3 37 -6 34 -3 -3 -29 -443 -58 -977 -30 -535 -57 -975 -60
-978 -3 -4 -64 -10 -134 -14 -70 -5 -141 -11 -159 -14 -31 -5 -31 -4 -41 42
-111 523 -397 1851 -399 1849 -2 -1 42 -434 97 -961 103 -990 102 -974 60
-975 -8 0 -75 -15 -148 -34 l-134 -33 -9 21 c-5 12 -155 397 -333 856 l-324
835 54 58 c83 90 108 145 109 240 0 76 -1 79 -33 108 -59 53 -120 39 -317 -75
-86 -50 -130 -57 -130 -21 0 15 19 29 71 55 173 86 265 197 265 320 0 33 -2
64 -5 69 -3 5 3 29 14 52 22 49 26 129 8 147 -23 23 -43 12 -103 -54z m-176
-235 c26 -28 45 -100 36 -138 -7 -35 -44 -65 -71 -59 -26 5 -54 59 -61 116 -5
45 -3 53 20 76 31 31 50 33 76 5z m169 -530 c8 -41 -113 -129 -177 -129 -26 0
-61 26 -61 44 0 7 24 20 54 30 30 10 76 31 103 47 52 31 76 33 81 8z m1967
-1969 c923 -75 1764 -537 2325 -1276 360 -474 579 -1038 640 -1644 11 -113 15
-504 4 -544 -6 -24 -19 -17 -597 273 -1037 521 -1684 818 -2297 1053 -172 66
-207 77 -300 86 -559 60 -1212 29 -1758 -83 -532 -108 -990 -301 -1289 -543
-31 -25 -61 -70 -120 -178 -43 -79 -80 -139 -82 -133 -5 17 19 221 39 335 115
632 412 1214 850 1667 564 584 1288 923 2115 990 96 8 353 6 470 -3z m-328
-2085 c94 -9 191 -19 215 -24 54 -10 435 -160 713 -279 582 -249 1064 -483
2326 -1125 332 -169 336 -172 346 -208 l10 -37 -34 5 c-20 3 -33 1 -33 -5 0
-20 31 -42 59 -42 16 0 35 -7 42 -16 12 -15 10 -16 -18 -10 -19 5 -34 3 -38
-4 -11 -17 15 -40 46 -40 15 0 31 -4 34 -10 3 -6 -5 -10 -19 -10 -14 0 -28 -5
-31 -10 -11 -17 15 -40 46 -40 15 0 31 -4 34 -10 4 -6 -7 -10 -24 -10 -19 0
-31 -5 -31 -13 0 -21 22 -37 51 -37 15 0 29 -7 33 -15 4 -12 -3 -15 -29 -15
-19 0 -35 -3 -35 -7 0 -18 36 -43 62 -43 15 0 28 -4 28 -10 0 -5 -16 -10 -36
-10 -51 0 -43 -31 13 -45 58 -14 64 -25 15 -25 -28 0 -42 -4 -42 -13 0 -22 23
-37 56 -37 18 0 36 -4 39 -10 4 -6 -12 -10 -40 -10 -39 0 -46 -3 -43 -17 2
-13 18 -21 56 -27 68 -12 70 -32 2 -28 -40 3 -50 1 -50 -12 0 -21 31 -36 74
-36 42 0 44 -10 16 -65 l-20 -40 24 -18 c25 -18 43 -74 33 -100 -5 -13 -202
25 -723 138 l-71 16 -12 117 c-20 185 -58 398 -101 554 -42 156 -129 382 -157
409 -26 25 -231 133 -650 343 -205 102 -373 182 -373 177 0 -5 7 -28 15 -51
24 -68 17 -70 -14 -5 -15 33 -37 67 -47 76 -18 16 -206 103 -429 199 -60 26
-190 84 -287 128 -318 145 -598 246 -598 215 0 -3 11 -29 25 -57 55 -112 60
-169 60 -666 0 -250 -4 -467 -8 -482 -10 -39 -70 -80 -145 -99 l-66 -16 102
-13 101 -13 -57 -56 c-32 -31 -72 -84 -90 -119 l-33 -62 -52 6 c-29 4 -53 8
-55 9 -11 9 56 125 89 156 l41 37 -24 14 c-13 7 -61 13 -113 15 -113 2 -1096
-9 -1092 -13 1 -2 239 -19 527 -39 289 -21 526 -38 527 -39 2 -2 -25 -117 -29
-122 -3 -2 -107 1 -234 7 -357 18 -1408 -1 -2049 -36 -580 -32 -1155 -102
-1447 -176 -95 -24 -98 -24 -98 1 0 35 52 79 130 111 41 16 81 36 90 43 27 24
111 45 320 80 787 135 1550 192 2715 205 l640 7 53 23 c145 65 187 278 163
826 -12 277 -21 328 -74 397 -78 102 -189 153 -387 179 -155 21 -732 17 -965
-5 -713 -68 -1311 -220 -1672 -426 -40 -22 -73 -38 -73 -35 0 20 247 155 429
234 351 154 888 274 1391 311 85 6 166 13 180 14 90 10 627 4 777 -9z m549
-259 c106 -36 320 -125 514 -214 96 -44 218 -98 270 -120 281 -121 355 -158
377 -191 56 -83 145 -434 237 -931 25 -135 54 -285 65 -333 l19 -89 -23 6
c-48 12 -1649 356 -1657 356 -36 0 53 134 122 184 49 35 55 37 92 28 l39 -10
-22 36 c-55 93 -54 82 -54 582 -1 397 -3 478 -18 555 -10 50 -24 107 -32 128
-8 20 -11 37 -7 37 5 0 40 -11 78 -24z m-3031 -614 c154 -52 353 -119 443
-149 90 -29 175 -61 188 -70 45 -29 57 -69 62 -193 6 -164 3 -169 -43 -81 -21
40 -61 98 -88 128 -86 93 -163 118 -277 88 -62 -16 -104 -36 -427 -208 -171
-91 -541 -257 -572 -257 -13 0 357 823 376 838 20 14 -9 23 338 -96z m4653
-96 c202 -101 421 -213 486 -249 l119 -66 33 -76 c87 -196 148 -416 188 -679
36 -233 42 -306 25 -306 -14 0 -912 191 -917 195 -3 3 -42 225 -42 242 0 6 13
-1 29 -16 33 -31 31 -30 406 -135 499 -139 475 -135 475 -66 0 22 -38 201 -85
397 -66 276 -91 366 -111 394 -22 33 -77 63 -447 248 -232 116 -433 212 -447
213 -17 2 -25 -2 -28 -17 -2 -15 -1 -17 6 -6 7 10 100 -32 433 -198 233 -117
432 -220 442 -229 30 -27 53 -80 75 -172 148 -618 154 -649 118 -663 -11 -4
-13 3 -9 32 8 59 -134 690 -169 753 -22 39 -43 51 -435 249 -227 115 -422 209
-433 209 -28 0 -26 -23 9 -118 41 -111 85 -295 120 -502 49 -291 46 -327 -8
-85 -65 294 -180 749 -206 818 -4 9 -4 17 -1 17 3 0 171 -83 374 -184z m-43
-90 c273 -130 550 -277 576 -305 17 -18 39 -69 63 -144 44 -141 45 -161 4 -80
-82 166 -258 291 -571 408 -121 45 -129 47 -145 31 -25 -25 -20 -203 11 -384
28 -168 20 -177 -12 -12 -13 63 -47 210 -77 327 -30 117 -54 219 -54 228 0 24
36 12 205 -69z m-2370 -716 c171 -6 318 -13 328 -16 14 -4 17 -12 13 -27 -45
-156 -77 -997 -74 -1927 1 -283 3 -488 5 -455 1 33 12 238 23 455 11 217 29
580 40 805 41 818 51 991 66 1065 8 41 14 76 14 77 0 2 104 -9 108 -12 1 -1
-5 -35 -13 -76 -11 -51 -36 -508 -84 -1482 -38 -775 -72 -1411 -75 -1415 -3
-3 -6 77 -6 177 l0 183 -33 33 c-37 37 -3 34 -562 55 -298 11 -982 58 -1755
120 -476 38 -1144 82 -1477 95 l-161 7 -6 32 c-4 17 -9 162 -12 321 l-6 290
28 -26 c68 -62 116 -74 173 -44 38 19 83 74 77 92 -4 9 -2 11 6 7 8 -5 9 -2 5
10 -4 10 -3 15 3 11 13 -8 47 110 55 192 12 122 -24 278 -85 362 -56 77 -128
92 -199 40 l-43 -30 6 73 c3 40 8 113 12 162 l6 88 30 -6 c16 -3 107 1 201 9
657 56 1432 86 2727 108 124 2 171 6 187 17 43 28 53 77 53 254 l0 163 -82 6
c-128 10 -1073 8 -1358 -3 -467 -18 -905 -57 -1285 -115 -189 -29 -363 -60
-388 -70 -17 -7 -17 -5 -5 21 67 143 51 131 218 170 449 107 1280 174 2495
203 494 12 497 12 830 1z m1419 -220 c464 -99 846 -180 850 -180 3 0 6 -79 6
-175 0 -96 -3 -175 -7 -175 -4 0 -17 10 -30 21 -46 44 -176 34 -209 -16 -13
-20 -13 -27 -1 -58 18 -42 57 -70 119 -85 75 -19 86 -16 105 26 l17 37 4 -35
c8 -74 -3 -759 -13 -769 -6 -6 -120 -13 -275 -16 -146 -3 -294 -11 -328 -17
-106 -18 -178 -88 -225 -218 -97 -264 -361 -947 -370 -957 -22 -21 -647 -116
-663 -100 -6 5 123 2626 135 2742 9 94 23 155 36 155 2 0 385 -81 849 -180z
m-2400 -8 c7 -11 -15 -376 -22 -383 -4 -3 -243 -11 -532 -18 -515 -11 -866
-26 -1285 -56 -115 -8 -277 -19 -360 -25 -82 -5 -167 -12 -189 -15 l-38 -6 5
43 c4 24 12 100 19 170 12 124 13 127 38 133 409 85 1105 137 2135 158 66 2
143 4 172 5 28 1 54 -2 57 -6z m467 -33 c17 -9 19 -23 19 -163 l0 -153 -122 1
c-68 1 -166 -1 -218 -4 l-95 -5 2 90 c2 50 6 128 9 174 l6 84 190 -7 c105 -4
199 -11 209 -17z m2836 -1224 c-3 -570 -10 -1039 -15 -1062 -5 -24 -7 -43 -3
-43 3 0 114 25 246 55 132 30 351 79 487 109 211 46 253 59 290 85 77 54 85
65 133 161 l46 95 -37 -45 c-108 -130 -234 -229 -234 -184 0 8 11 105 25 217
50 406 68 947 46 1347 -4 69 -7 126 -6 127 2 5 598 -126 605 -133 21 -22 101
-630 120 -919 12 -187 12 -259 0 -229 -12 30 -18 32 -104 44 -109 16 -241 0
-271 -31 -13 -13 -70 -107 -126 -208 -62 -109 -118 -197 -141 -219 -24 -23
-34 -38 -26 -43 26 -16 -219 -78 -647 -164 -322 -65 -511 -106 -549 -121 -17
-6 -18 -4 -12 17 77 265 90 474 41 664 -22 83 -79 201 -104 215 -33 17 -274
24 -361 11 -61 -10 -79 -17 -98 -39 -36 -43 -155 -292 -227 -477 -36 -93 -108
-273 -160 -400 -51 -126 -104 -257 -116 -290 -40 -108 -57 -114 -449 -170
-181 -25 -510 -56 -583 -54 -26 1 -4 6 57 15 54 7 111 16 127 19 36 8 69 49
69 86 0 22 5 29 20 29 24 0 353 52 542 86 76 13 143 24 148 24 16 0 -6 -36
-52 -86 -44 -48 -44 -51 6 -30 63 26 61 23 410 911 36 94 92 220 124 280 l57
110 50 14 c34 9 111 14 242 14 222 1 211 4 269 -99 59 -107 77 -195 78 -384 0
-115 -5 -194 -17 -260 -10 -52 -20 -106 -22 -120 -11 -61 28 75 46 158 33 160
22 390 -26 557 -8 28 -30 76 -48 107 l-35 56 72 9 c62 7 72 11 83 33 8 18 14
204 19 630 5 333 10 592 12 575 2 -16 2 -489 -1 -1050z m-5731 1048 c-3 -10
-12 -70 -21 -133 -24 -176 -14 -160 -96 -160 -124 0 -137 19 -109 157 22 108
37 128 100 139 19 3 40 7 45 9 6 2 27 4 48 4 32 1 37 -2 33 -16z m6226 -74
c351 -71 458 -95 464 -108 13 -31 17 -792 5 -981 -19 -299 -64 -716 -80 -732
-13 -15 -866 -237 -874 -228 -2 3 -1 120 4 260 4 140 8 621 8 1068 1 446 4
812 9 812 4 0 213 -41 464 -91z m-6408 -786 c-3 -71 -2 -79 5 -43 9 43 27 100
33 100 2 0 2 -37 1 -82 -1 -67 0 -75 7 -43 9 42 27 95 33 95 2 0 0 -24 -4 -52
-15 -103 -6 -115 21 -30 7 24 18 46 23 49 7 4 8 -1 3 -13 -4 -10 -9 -50 -12
-89 -3 -62 -3 -66 6 -30 6 22 15 44 21 50 15 14 1 -80 -18 -125 l-15 -35 -14
30 -13 30 -7 -34 -7 -33 -13 23 c-7 13 -13 32 -14 41 0 9 -5 20 -11 24 -9 5
-10 -8 -6 -47 6 -54 6 -54 -8 -19 -7 19 -15 49 -16 65 -1 17 -5 1 -8 -35 l-6
-65 -17 65 -16 65 -2 -50 -2 -50 -14 44 c-17 55 -28 67 -22 24 2 -18 1 -30 -4
-27 -4 3 -9 17 -9 32 -1 20 -4 16 -8 -13 l-7 -40 -13 52 c-7 31 -10 69 -6 93
9 51 22 60 18 12 -3 -41 7 -25 25 38 l10 35 2 -45 2 -45 16 65 17 65 6 -55 c3
-30 6 -47 7 -37 2 23 32 127 37 127 1 0 1 -39 -1 -87z m7374 -886 c55 -58 87
-233 80 -435 -9 -240 -65 -402 -138 -402 -15 0 -34 8 -42 18 -62 69 -99 307
-79 502 27 256 105 395 179 317z m-7524 -192 c126 -29 676 -75 1956 -165 398
-28 1021 -61 1415 -75 450 -17 609 -24 603 -30 -2 -2 -111 -11 -243 -19 -279
-19 -929 -21 -1250 -6 -397 19 -778 50 -810 65 -37 18 -1247 129 -1309 120
-49 -7 -423 45 -540 75 -134 34 -135 58 -1 59 41 1 116 -10 179 -24z m7972
-126 c232 -58 718 -208 771 -237 14 -8 1 -18 -63 -50 -719 -362 -5292 -2686
-5299 -2693 -33 -33 -1150 48 -1745 127 -1115 147 -2046 389 -2665 694 -160
79 -342 186 -404 238 l-32 27 1367 472 1368 472 39 -31 c22 -17 73 -48 113
-69 41 -20 69 -39 62 -42 -9 -4 -4 -14 16 -31 l29 -24 -144 -45 c-79 -25 -250
-78 -379 -117 -348 -106 -663 -211 -680 -227 -13 -13 -12 -17 12 -38 15 -13
52 -32 82 -44 182 -68 808 -209 1181 -265 127 -20 309 -49 405 -66 811 -139
1481 -207 1785 -181 309 27 900 178 1265 324 102 40 138 50 199 53 221 10 454
165 518 343 l17 48 135 63 c75 34 309 136 521 227 212 91 448 195 525 231 130
61 144 65 202 63 72 -2 111 12 218 81 107 70 156 128 187 223 38 116 58 240
65 407 l6 148 26 -6 c14 -4 148 -37 297 -75z m-2429 4 c57 -39 88 -80 127
-165 176 -385 65 -1102 -200 -1284 -51 -35 -63 -39 -119 -39 -52 0 -68 5 -103
29 -74 51 -142 181 -177 337 -9 43 -19 144 -22 244 -4 146 -2 188 16 297 63
366 216 608 387 608 39 0 60 -6 91 -27z m-5653 -28 c72 -14 199 -36 281 -48
l150 -23 3 -63 3 -63 -53 7 c-59 7 -429 68 -526 87 l-63 12 7 45 c6 46 25 71
52 71 9 0 74 -11 146 -25z m696 -25 c69 -6 260 -24 425 -40 165 -17 372 -37
460 -45 127 -12 163 -18 173 -32 8 -12 12 -62 12 -164 0 -121 -3 -150 -16
-163 -8 -9 -18 -16 -22 -16 -4 0 -268 34 -587 75 -319 41 -586 75 -593 75 -7
0 -24 11 -37 25 -24 23 -25 29 -25 154 0 142 5 154 60 146 14 -3 81 -9 150
-15z m6131 -6 c19 -23 58 -41 107 -49 l42 -7 0 -81 c1 -45 4 -100 9 -122 l7
-40 -540 0 -541 0 -6 -45 -6 -45 -2 50 c-1 28 -6 74 -10 103 -5 35 -4 49 3 42
6 -6 20 -3 40 9 17 10 90 33 161 49 127 30 134 31 301 25 l170 -6 77 57 c42
31 87 61 99 66 36 14 74 12 89 -6z m-6879 -113 c84 -16 228 -41 320 -56 l166
-28 4 -48 c2 -28 -1 -49 -7 -49 -19 0 -440 78 -534 99 -52 12 -98 27 -103 33
-8 13 -11 78 -4 78 2 0 73 -13 158 -29z m-228 -23 c20 -99 90 -124 516 -183
102 -14 196 -29 209 -32 19 -5 23 -3 18 9 -5 14 -2 14 21 3 25 -12 1203 -165
1271 -165 45 0 61 23 61 86 0 30 3 54 8 54 4 0 120 -9 257 -20 633 -50 893
-62 1390 -65 270 -2 527 -6 572 -10 l81 -7 -9 -31 c-5 -17 -17 -39 -26 -49
-44 -43 -490 -70 -800 -49 -138 9 -170 14 -210 35 -42 20 -68 24 -198 31 -82
4 -351 21 -597 39 -439 31 -448 31 -448 12 0 -33 -30 -56 -72 -56 -22 0 -305
34 -629 75 -325 41 -593 75 -597 75 -4 0 81 -41 188 -91 187 -87 199 -91 304
-104 66 -8 112 -19 118 -27 5 -7 17 -29 28 -50 11 -20 42 -66 70 -102 40 -52
48 -68 35 -72 -8 -3 -632 -210 -1387 -460 l-1373 -454 -55 58 c-229 240 -273
514 -121 757 136 216 395 413 786 597 165 78 535 225 571 227 6 1 14 -13 18
-31z m2521 7 c434 -30 943 -40 1314 -27 190 7 393 17 450 23 57 5 106 8 108 5
9 -9 15 -86 7 -86 -5 0 -39 -5 -75 -10 -154 -22 -473 -31 -778 -20 -532 18
-1418 71 -1442 86 -5 3 -9 17 -9 31 l0 26 108 -7 c59 -4 202 -13 317 -21z
m-60 -95 c569 -39 877 -52 1370 -56 275 -2 510 -6 523 -9 19 -5 22 -12 22 -50
0 -51 10 -48 -180 -64 -355 -32 -965 -16 -1720 44 -102 8 -219 17 -260 21
-125 9 -120 6 -120 73 0 32 3 60 6 64 3 3 20 4 37 1 18 -2 163 -13 322 -24z
m6880 -42 c547 -229 906 -522 997 -811 23 -73 26 -199 8 -278 -32 -138 -160
-315 -327 -451 -229 -187 -620 -384 -1068 -538 -1082 -372 -2842 -612 -4384
-598 l-334 3 2499 1357 c1374 746 2501 1357 2504 1358 3 0 50 -19 105 -42z"/>
<path d="M14354 6688 c-4 -7 -3 -8 4 -4 6 4 34 -5 62 -19 58 -30 67 -43 13
-19 -83 36 -86 33 -52 -62 38 -110 87 -319 113 -484 34 -213 32 -207 59 -224
28 -19 504 -129 529 -123 10 3 16 1 12 -4 -3 -5 4 -9 15 -9 11 0 22 8 26 19 5
18 -128 589 -145 621 -5 8 -19 24 -32 36 -28 24 -559 284 -581 284 -9 0 -19
-5 -23 -12z m322 -187 c121 -60 226 -117 235 -127 16 -19 59 -141 59 -166 0
-7 -9 6 -20 29 -41 92 -175 186 -359 253 -62 23 -64 23 -77 5 -17 -23 -17 -46
0 -157 14 -99 5 -111 -13 -16 -10 52 -47 202 -67 271 -3 10 0 17 9 17 8 0 113
-49 233 -109z"/>
<path d="M12044 7703 c14 -111 18 -634 6 -833 -12 -199 -12 -207 9 -264 24
-68 67 -119 93 -112 11 2 15 0 12 -6 -5 -7 2 -9 19 -6 16 3 24 1 20 -5 -4 -6
4 -8 20 -5 16 3 24 1 20 -5 -4 -6 2 -8 15 -5 14 4 20 2 16 -4 -5 -7 2 -9 19
-6 16 3 24 1 20 -5 -4 -6 4 -8 20 -5 16 3 24 1 20 -5 -4 -6 4 -8 20 -5 16 3
24 1 20 -5 -4 -6 2 -8 15 -5 14 4 20 2 16 -4 -5 -7 2 -9 19 -6 16 3 24 1 20
-5 -4 -6 4 -8 20 -5 15 3 24 1 21 -3 -3 -5 2 -9 11 -9 18 0 30 -24 20 -40 -4
-7 -12 -7 -26 1 -28 15 -49 -5 -49 -46 0 -44 24 -64 49 -41 16 15 19 15 24 1
7 -18 38 -20 55 -3 7 7 12 33 12 59 0 26 5 51 12 55 7 4 8 3 4 -4 -4 -8 0 -12
12 -12 10 0 32 -11 48 -25 26 -23 36 -26 96 -23 37 2 64 -1 61 -6 -3 -5 6 -7
20 -4 16 3 24 1 20 -5 -4 -6 4 -8 20 -5 16 3 24 1 20 -5 -4 -6 4 -8 20 -5 16
3 24 1 20 -5 -4 -6 2 -8 15 -5 14 4 20 2 16 -4 -5 -7 2 -9 19 -6 15 3 24 2 22
-3 -7 -10 52 -22 66 -13 8 5 9 3 4 -6 -6 -10 -1 -12 18 -8 16 3 24 1 20 -5 -4
-6 4 -8 20 -5 16 3 24 1 20 -5 -4 -6 2 -8 15 -5 12 4 20 2 17 -2 -7 -11 69
-23 95 -15 26 8 40 43 40 98 0 143 -150 808 -208 926 l-27 56 -235 118 c-237
118 -781 357 -814 357 -16 0 -17 -6 -12 -47z m227 -124 c34 -17 179 -82 323
-145 370 -163 442 -206 470 -274 20 -50 58 -199 54 -212 -2 -5 -18 12 -35 39
-95 146 -202 221 -423 296 -188 64 -389 127 -405 127 -29 0 -73 -55 -89 -111
-8 -30 -20 -122 -26 -204 -6 -83 -14 -164 -19 -180 -10 -38 -21 546 -11 610
14 90 60 106 161 54z"/>
<path d="M10346 5369 c-178 -42 -337 -206 -381 -391 -56 -239 61 -489 277
-591 126 -60 215 -70 339 -38 98 25 161 62 237 137 160 159 197 399 95 612
-35 72 -150 190 -220 226 -103 51 -241 70 -347 45z m-198 -156 c-100 -104
-138 -197 -138 -335 l0 -78 59 0 59 0 11 -50 c36 -168 146 -293 299 -340 75
-23 119 -25 189 -7 76 20 54 1 -26 -23 -87 -26 -195 -26 -279 -1 -224 68 -371
302 -341 541 13 104 42 173 113 264 26 34 100 96 114 96 3 0 -24 -30 -60 -67z
m414 -31 c188 -68 275 -277 199 -475 -27 -69 -96 -143 -166 -177 -72 -36 -179
-34 -250 2 -174 90 -242 303 -155 483 68 141 236 217 372 167z"/>
<path d="M10415 5151 c-89 -23 -177 -103 -207 -188 -20 -60 -16 -189 9 -244
103 -229 401 -229 507 0 29 65 30 197 0 262 -57 123 -195 200 -309 170z m55
-93 c-6 -29 -10 -82 -8 -118 l3 -65 18 69 c15 59 61 166 71 166 2 0 -3 -23
-10 -52 -8 -29 -14 -93 -13 -143 l1 -90 17 65 c16 63 65 180 75 180 2 0 1 -14
-4 -31 -17 -59 -30 -183 -23 -218 l7 -36 8 44 c9 53 68 181 75 163 3 -7 0 -27
-7 -45 -6 -17 -13 -70 -16 -117 -4 -83 -4 -84 9 -40 7 25 21 59 31 75 l17 30
-4 -72 c-3 -55 -11 -82 -31 -117 -30 -51 -41 -51 -64 3 -15 35 -15 36 -23 11
-4 -14 -7 -38 -8 -53 -1 -16 -5 -26 -10 -23 -12 8 -42 73 -57 126 -13 43 -13
42 -11 -55 l3 -99 -23 49 c-13 28 -26 67 -29 88 -4 20 -11 40 -15 43 -12 7
-11 -113 1 -156 9 -32 8 -33 -5 -16 -24 31 -55 124 -56 164 0 35 -1 36 -11 12
-5 -14 -7 -54 -4 -90 6 -77 -4 -65 -41 45 l-23 70 2 -68 c3 -56 1 -65 -9 -51
-7 10 -16 32 -19 51 -11 60 -28 51 -21 -12 5 -49 4 -55 -7 -39 -36 52 -48 167
-25 235 19 57 31 59 24 4 -3 -27 -1 -63 4 -80 l9 -30 1 31 c1 41 36 154 55
179 14 18 15 17 6 -15 -6 -19 -10 -64 -9 -100 l1 -65 13 60 c8 34 25 85 39
115 15 30 24 44 21 30 -13 -60 -16 -147 -7 -170 10 -24 11 -23 11 11 1 38 14
79 50 163 27 61 36 54 21 -16z"/>
<path d="M8631 5207 c-49 -16 -136 -100 -165 -160 -91 -188 -68 -401 59 -536
61 -65 121 -94 195 -94 249 0 395 360 256 631 -30 58 -108 136 -158 157 -42
17 -136 18 -187 2z m125 -118 c93 -44 143 -165 122 -295 -19 -124 -96 -206
-193 -206 -54 0 -92 20 -137 70 -47 52 -63 101 -62 192 1 188 133 306 270 239z"/>
<path d="M9172 5877 c-15 -146 -15 -167 -3 -167 6 0 12 19 14 43 l4 42 1 -42
c1 -24 7 -43 12 -43 6 0 10 3 10 8 0 4 7 66 15 137 8 72 15 133 15 136 0 3
-13 6 -28 7 l-28 1 -12 -122z"/>
<path d="M14900 3985 c-6 -8 -9 -19 -6 -24 4 -5 1 -13 -5 -17 -8 -5 -9 -3 -4
6 6 9 4 11 -4 5 -7 -4 -11 -16 -8 -26 3 -11 2 -17 -3 -14 -12 7 -21 -25 -14
-47 5 -17 7 -17 26 7 27 35 45 31 57 -12 12 -44 13 -166 1 -203 -4 -14 -8 -20
-9 -13 -1 7 -8 10 -16 7 -19 -7 -19 1 -1 59 12 41 12 50 -3 79 -23 47 -38 46
-50 -4 l-11 -43 5 45 c6 63 -10 84 -19 24 -10 -75 -7 -241 4 -224 5 8 10 26
11 40 0 23 1 23 12 -7 16 -43 24 -48 43 -32 16 13 16 12 5 -9 -7 -14 -18 -21
-26 -18 -24 9 -29 -15 -7 -36 27 -27 54 -12 76 42 21 52 26 51 14 -2 -13 -59
-40 -103 -64 -103 -26 0 -56 61 -50 100 5 26 4 27 -6 11 -14 -24 13 -114 41
-140 21 -19 58 -17 54 2 -2 7 3 11 10 10 6 -2 11 5 11 14 -1 10 3 15 9 11 6
-4 8 0 4 11 -4 10 -3 15 3 11 12 -7 28 51 42 154 15 111 -7 301 -33 285 -5 -3
-6 2 -3 11 15 38 -59 73 -86 40z"/>
<path d="M12825 3661 c-177 -80 -304 -492 -254 -824 20 -135 67 -265 91 -251
7 4 8 3 4 -5 -9 -14 12 -43 25 -35 5 3 6 -1 3 -9 -6 -17 49 -54 95 -63 50 -10
114 20 166 79 91 104 155 284 176 503 23 235 -33 476 -133 571 -58 55 -106 65
-173 34z m89 -212 c14 -11 31 -30 38 -42 10 -20 10 -21 -7 -7 -16 14 -17 13
-12 -5 59 -186 15 -474 -88 -581 -42 -45 -68 -52 -122 -38 -32 9 -53 84 -60
209 -16 299 126 562 251 464z"/>
<path d="M12704 3198 c-25 -81 -30 -246 -9 -323 30 -111 84 -127 124 -36 27
65 27 71 -9 71 -38 0 -38 13 -6 114 23 74 23 75 5 128 -16 48 -56 98 -79 98
-5 0 -17 -24 -26 -52z"/>
<path d="M2100 12649 c-200 -95 -660 -280 -982 -395 -237 -84 -288 -124 -288
-225 0 -58 20 -77 90 -88 74 -12 101 -36 127 -113 44 -128 159 -738 170 -894
7 -105 -7 -148 -64 -191 -64 -49 -82 -127 -44 -189 42 -68 125 -66 338 7 293
101 538 228 583 301 28 46 27 119 -2 152 -27 30 -44 33 -116 22 -64 -10 -79 1
-112 76 -23 54 -70 258 -72 315 -2 44 23 69 89 90 53 17 56 17 91 -2 29 -16
42 -33 62 -81 32 -79 45 -94 84 -94 47 0 90 32 116 86 61 124 16 492 -75 624
-47 68 -126 78 -177 22 -32 -35 -38 -51 -48 -140 -10 -88 -28 -112 -107 -142
-63 -24 -73 -24 -97 -7 -21 16 -46 164 -46 277 0 115 14 127 220 196 81 27
133 38 175 39 55 0 67 -4 145 -53 99 -60 135 -66 192 -27 101 69 83 271 -35
393 -79 82 -117 89 -217 41z"/>
<path d="M9140 12370 c-19 -11 -66 -31 -105 -46 -89 -34 -111 -55 -124 -116
-13 -60 -14 -165 -2 -172 5 -3 38 7 72 24 35 16 93 40 129 53 77 27 88 44 99
148 14 129 2 148 -69 109z"/>
<path d="M8485 12278 c-63 -23 -111 -66 -144 -127 -18 -34 -36 -61 -41 -61 -5
0 -11 13 -15 29 -8 38 -28 54 -55 46 -30 -9 -167 -115 -218 -168 -55 -56 -56
-93 -3 -118 18 -8 37 -23 42 -31 5 -9 18 -71 29 -138 l20 -123 -22 -44 c-18
-36 -20 -47 -9 -69 11 -25 15 -26 69 -22 77 5 210 68 258 121 41 44 40 75 -1
113 -25 23 -26 26 -50 142 -22 107 -20 154 8 179 64 59 101 25 132 -122 12
-58 15 -103 10 -163 -6 -81 -6 -82 19 -92 50 -19 259 70 311 132 27 32 33 71
13 87 -65 52 -65 54 -98 191 -51 208 -73 242 -168 247 -31 1 -70 -3 -87 -9z"/>
<path d="M7640 11909 c-103 -57 -169 -106 -176 -134 -10 -40 0 -59 36 -71 40
-13 51 -35 74 -146 31 -147 14 -214 -52 -206 -38 4 -47 30 -89 240 -20 101
-42 189 -49 197 -11 13 -22 11 -75 -12 -91 -39 -218 -116 -235 -143 -9 -12
-14 -35 -12 -51 2 -22 9 -29 32 -33 45 -8 64 -45 92 -175 28 -134 53 -195 92
-226 23 -18 37 -20 92 -17 85 5 132 29 202 102 l57 59 12 -26 c7 -15 20 -27
29 -27 35 0 161 73 215 123 48 46 55 58 55 90 0 34 -4 40 -34 52 l-33 14 -38
193 c-21 106 -42 203 -46 216 -13 34 -62 28 -149 -19z"/>
<path d="M6770 11811 c-92 -47 -284 -120 -427 -161 -154 -44 -183 -63 -183
-120 0 -32 4 -37 43 -55 50 -24 55 -37 92 -223 61 -311 61 -341 9 -390 -33
-31 -35 -72 -6 -106 14 -14 26 -17 64 -13 95 12 315 100 376 151 24 21 32 36
32 60 0 43 -16 56 -67 56 -51 0 -63 17 -86 129 -14 70 -14 74 4 92 12 12 33
19 55 19 32 0 37 -4 55 -45 17 -38 24 -45 49 -45 19 0 35 9 49 26 53 67 4 350
-63 362 -50 10 -86 -26 -86 -87 0 -15 -8 -36 -19 -45 -22 -20 -86 -32 -95 -18
-3 6 -9 44 -12 84 -8 92 -3 98 109 133 89 28 108 27 168 -10 21 -14 49 -25 62
-25 88 0 101 132 20 221 -43 47 -67 49 -143 10z"/>
</g>
</svg>
